<svg width="27" height="28" viewBox="0 0 27 28" fill="none" xmlns="http://www.w3.org/2000/svg">
<path d="M5.90106 11.3751C5.89965 10.3377 6.09529 9.31035 6.47669 8.35211C6.85809 7.39387 7.41773 6.5237 8.12336 5.79172C8.82898 5.05974 9.66667 4.48041 10.5882 4.08711C11.5096 3.6938 12.4967 3.49429 13.4926 3.50006C17.6506 3.53287 20.9791 7.13131 20.9791 11.4735V12.2501C20.9791 16.1657 21.7666 18.4407 22.4596 19.6876C22.5332 19.8204 22.572 19.971 22.5721 20.1243C22.5722 20.2776 22.5337 20.4283 22.4603 20.5612C22.3869 20.6942 22.2813 20.8047 22.154 20.8817C22.0267 20.9587 21.8823 20.9995 21.7351 21.0001H5.14506C4.99786 20.9995 4.85338 20.9587 4.72609 20.8817C4.59881 20.8047 4.49319 20.6942 4.41981 20.5612C4.34644 20.4283 4.30788 20.2776 4.30801 20.1243C4.30814 19.971 4.34695 19.8204 4.42056 19.6876C5.11356 18.4407 5.90106 16.1657 5.90106 12.2501V11.3751Z" stroke="white" stroke-width="1.5625" stroke-linecap="round" stroke-linejoin="round"/>
<path d="M10.08 21V21.875C10.08 22.8033 10.434 23.6935 11.0641 24.3499C11.6942 25.0063 12.5489 25.375 13.44 25.375C14.3311 25.375 15.1857 25.0063 15.8159 24.3499C16.446 23.6935 16.8 22.8033 16.8 21.875V21" stroke="white" stroke-width="1.5625" stroke-linecap="round" stroke-linejoin="round"/>
</svg>
