<svg width="41" height="37" viewBox="0 0 41 37" fill="none" xmlns="http://www.w3.org/2000/svg">
<path d="M34 18V26C34 26.5304 33.7893 27.0391 33.4142 27.4142C33.0391 27.7893 32.5304 28 32 28H8C7.46957 28 6.96086 27.7893 6.58579 27.4142C6.21071 27.0391 6 26.5304 6 26V18C6 17.4696 6.21071 16.9609 6.58579 16.5858C6.96086 16.2107 7.46957 16 8 16H13C13.2652 16 13.5196 16.1054 13.7071 16.2929C13.8946 16.4804 14 16.7348 14 17C14 17.2652 13.8946 17.5196 13.7071 17.7071C13.5196 17.8946 13.2652 18 13 18H8V26H32V18H27C26.7348 18 26.4804 17.8946 26.2929 17.7071C26.1054 17.5196 26 17.2652 26 17C26 16.7348 26.1054 16.4804 26.2929 16.2929C26.4804 16.1054 26.7348 16 27 16H32C32.5304 16 33.0391 16.2107 33.4142 16.5858C33.7893 16.9609 34 17.4696 34 18ZM19.2925 17.7075C19.3854 17.8005 19.4957 17.8742 19.6171 17.9246C19.7385 17.9749 19.8686 18.0008 20 18.0008C20.1314 18.0008 20.2615 17.9749 20.3829 17.9246C20.5043 17.8742 20.6146 17.8005 20.7075 17.7075L26.7075 11.7075C26.8951 11.5199 27.0006 11.2654 27.0006 11C27.0006 10.7346 26.8951 10.4801 26.7075 10.2925C26.5199 10.1049 26.2654 9.99944 26 9.99944C25.7346 9.99944 25.4801 10.1049 25.2925 10.2925L21 14.5863V4C21 3.73478 20.8946 3.48043 20.7071 3.29289C20.5196 3.10536 20.2652 3 20 3C19.7348 3 19.4804 3.10536 19.2929 3.29289C19.1054 3.48043 19 3.73478 19 4V14.5863L14.7075 10.2925C14.5199 10.1049 14.2654 9.99944 14 9.99944C13.7346 9.99944 13.4801 10.1049 13.2925 10.2925C13.1049 10.4801 12.9994 10.7346 12.9994 11C12.9994 11.2654 13.1049 11.5199 13.2925 11.7075L19.2925 17.7075ZM29 22C29 21.7033 28.912 21.4133 28.7472 21.1666C28.5824 20.92 28.3481 20.7277 28.074 20.6142C27.7999 20.5007 27.4983 20.4709 27.2074 20.5288C26.9164 20.5867 26.6491 20.7296 26.4393 20.9393C26.2296 21.1491 26.0867 21.4164 26.0288 21.7074C25.9709 21.9983 26.0007 22.2999 26.1142 22.574C26.2277 22.8481 26.42 23.0824 26.6666 23.2472C26.9133 23.412 27.2033 23.5 27.5 23.5C27.8978 23.5 28.2794 23.342 28.5607 23.0607C28.842 22.7794 29 22.3978 29 22Z" fill="white"/>
</svg>
