<svg width="26" height="25" viewBox="0 0 26 25" fill="none" xmlns="http://www.w3.org/2000/svg">
<path d="M13 17.1875C15.5888 17.1875 17.6875 15.0888 17.6875 12.5C17.6875 9.91117 15.5888 7.8125 13 7.8125C10.4112 7.8125 8.3125 9.91117 8.3125 12.5C8.3125 15.0888 10.4112 17.1875 13 17.1875Z" stroke="#DBDADA" stroke-linecap="round" stroke-linejoin="round"/>
<path d="M19.7773 7.88089C20.0124 8.21748 20.2183 8.5736 20.3926 8.94534L22.9219 10.3516C23.2377 11.7661 23.241 13.2325 22.9316 14.6485L20.3926 16.0547C20.2183 16.4265 20.0124 16.7826 19.7773 17.1192L19.8262 20.0196C18.7542 20.9964 17.4855 21.7323 16.1055 22.1778L13.6152 20.6836C13.2056 20.7129 12.7944 20.7129 12.3847 20.6836L9.90428 22.168C8.51981 21.7306 7.24695 20.9975 6.17381 20.0196L6.22264 17.1289C5.9895 16.7877 5.78378 16.4285 5.6074 16.0547L3.07811 14.6485C2.76229 13.2339 2.75895 11.7675 3.06834 10.3516L5.6074 8.94534C5.7817 8.5736 5.98753 8.21748 6.22264 7.88089L6.17381 4.9805C7.24573 4.00371 8.51442 3.2678 9.89451 2.8223L12.3847 4.31644C12.7944 4.28714 13.2056 4.28714 13.6152 4.31644L16.0957 2.83206C17.4802 3.26946 18.753 4.00252 19.8262 4.9805L19.7773 7.88089Z" stroke="#DBDADA" stroke-linecap="round" stroke-linejoin="round"/>
</svg>
